<svg width="801" height="120" viewBox="0 0 801 120" fill="none" xmlns="http://www.w3.org/2000/svg">
<path d="M67.1104 73.5401H89.1003L85.5803 90.3401H40.3203L52.8303 31.5601H76.0903L67.1104 73.5401Z" fill="white"/>
<path d="M146.62 46.6701H123.36L122.02 52.9701H141.41L138.22 67.83H118.91L117.31 75.2201H140.57L137.38 90.3401H90.8701L103.38 31.5601H149.89L146.62 46.6701Z" fill="white"/>
<path d="M184.74 54.9001L189.69 31.5601H209.34L196.83 90.3401H177.85L167.78 65.6501L162.57 90.3401H142.84L155.35 31.5601H175.08L184.74 54.9001Z" fill="white"/>
<path d="M215.55 42.2203C221.43 34.2403 229.91 30.3003 240.99 30.3003C257.11 30.3003 265.42 37.3503 266.01 50.7003L245.19 51.3703C244.85 46.6703 243.59 44.6503 240.91 44.6503C239.31 44.6503 238.14 45.8203 236.8 47.9203C235.04 50.6903 233.52 54.6403 232.18 59.7603C230.92 64.8003 230.25 68.6603 230.25 71.4303C230.25 75.5403 231.85 77.6403 234.62 77.6403C237.39 77.6403 239.91 75.2003 240.67 71.1703L241.01 69.7403H234.54L237.4 55.9703H265.44L258.8 86.8403C258.36 88.8703 256.57 90.3203 254.5 90.3203H241.09L241.51 83.5203C238.24 88.3103 233.11 91.5803 225.47 91.5803C219.84 91.5803 215.31 89.7303 211.87 86.0403C208.43 82.3503 206.75 77.3103 206.75 70.9303C206.75 59.7603 209.69 50.1903 215.57 42.2103" fill="white"/>
<path d="M25.6399 0.530273L0.620117 119.23H278.19C281.87 119.23 285.1 116.76 286.07 113.21L308.39 31.1603H287.05L267.75 100.57C267.38 102.57 265.64 104.01 263.61 104.01H19.3899L38 15.7403H397.6L379 104.01H297.97L294.19 119.23H391.34L416.36 0.530273H25.6499H25.6399Z" fill="white"/>
<path d="M334.68 91.5905C315.58 91.5905 306.46 82.0405 309.89 65.9604L317.18 31.7104H343.14L335.02 69.9005C334.35 73.0805 334.94 74.6705 337.03 74.6705C338.71 74.6705 339.96 73.3305 340.72 69.9005L348.84 31.7104H373.96L366.67 65.9604C363.07 82.7905 352.77 91.5905 334.68 91.5905Z" fill="white"/>
<path d="M457.56 44.8604H454.2L447.3 77.3204H452.01C455.04 77.3204 457.73 76.0604 459.83 73.9604C463.19 70.6004 466.22 62.5204 466.22 53.1104C466.22 47.7304 463.95 44.8704 457.56 44.8704V44.8604Z" fill="white"/>
<path d="M647.42 44.8604H644.06L637.16 77.3204H641.87C644.9 77.3204 647.59 76.0604 649.69 73.9604C653.05 70.6004 656.08 62.5204 656.08 53.1104C656.08 47.7304 653.81 44.8704 647.42 44.8704V44.8604Z" fill="white"/>
<path d="M416.11 0.530273L391.09 119.23H775.79L800.81 0.530273H416.11ZM453.77 90.5203H424.59L437.12 31.6603H462.01C470.5 31.6603 476.73 33.7603 480.59 38.0503C484.54 42.3403 486.48 47.8903 486.48 54.7003C486.48 63.6103 483.87 71.8503 478.58 79.3403C473.28 86.8203 465.04 90.5203 453.77 90.5203ZM531.97 76.7303L529.03 90.5203H485.05L497.58 31.6603H541.56L538.62 45.4503H514.57L512.8 53.6103H533.07L530.21 67.2303H509.94L507.92 76.7303H531.97ZM536.59 90.5203L549.12 31.6603H569.05L556.52 90.5203H536.59ZM607.73 90.5203H564.51L577.04 31.6603H596.97L587.64 75.3903H610.93L607.74 90.5303L607.73 90.5203ZM643.63 90.5203H614.45L626.98 31.6603H651.87C660.36 31.6603 666.59 33.7603 670.45 38.0503C674.4 42.3403 676.34 47.8903 676.34 54.7003C676.34 63.6103 673.73 71.8503 668.44 79.3403C663.14 86.8203 654.9 90.5203 643.63 90.5203ZM675.33 90.5203L687.86 31.6603H707.79L695.26 90.5203H675.33ZM756.14 90.5203H738.9L727.13 61.5903L720.99 90.5203H703.25L715.78 31.6603H734.03L745.13 58.9003L750.93 31.6603H768.67L756.14 90.5203Z" fill="white"/>
</svg>
